<svg xmlns="http://www.w3.org/2000/svg" style="width:0; height:0; visibility:hidden;">
    <symbol id="icon_behance" viewBox="0 0 16 16">
       <path fill="#fff" d="M4.641 3.206c0.472 0 0.897 0.041 1.284 0.125 0.388 0.081 0.716 0.219 0.994 0.406 0.275 0.188 0.487 0.438 0.644 0.75 0.15 0.309 0.225 0.697 0.225 1.156 0 0.497-0.112 0.909-0.338 1.241-0.228 0.331-0.559 0.6-1.003 0.813 0.606 0.175 1.053 0.481 1.353 0.916 0.3 0.438 0.444 0.963 0.444 1.581 0 0.5-0.097 0.928-0.287 1.291-0.194 0.366-0.456 0.662-0.778 0.891-0.325 0.231-0.7 0.4-1.119 0.509-0.416 0.109-0.844 0.166-1.287 0.166h-4.772v-9.844h4.641zM4.359 7.181c0.384 0 0.703-0.091 0.953-0.275 0.25-0.181 0.369-0.481 0.369-0.894 0-0.228-0.041-0.419-0.122-0.566-0.084-0.147-0.194-0.263-0.334-0.344-0.138-0.084-0.294-0.141-0.478-0.172-0.178-0.034-0.366-0.050-0.556-0.050h-2.025v2.3h2.194zM4.478 11.372c0.213 0 0.416-0.019 0.606-0.063 0.194-0.044 0.366-0.109 0.509-0.209 0.144-0.097 0.266-0.225 0.353-0.394 0.088-0.166 0.128-0.378 0.128-0.637 0-0.506-0.144-0.869-0.428-1.088-0.284-0.216-0.662-0.322-1.131-0.322h-2.35v2.709h2.313z"/> <path fill="#fff" d="M11.331 11.338c0.294 0.287 0.716 0.431 1.266 0.431 0.394 0 0.738-0.1 1.022-0.3s0.456-0.412 0.522-0.631h1.725c-0.278 0.859-0.697 1.469-1.272 1.838-0.566 0.369-1.259 0.556-2.063 0.556-0.563 0-1.066-0.091-1.519-0.269-0.453-0.181-0.831-0.434-1.15-0.766-0.309-0.331-0.553-0.725-0.725-1.188-0.169-0.459-0.256-0.969-0.256-1.519 0-0.534 0.088-1.031 0.262-1.491 0.178-0.463 0.422-0.859 0.747-1.194s0.706-0.6 1.156-0.794c0.447-0.194 0.941-0.291 1.488-0.291 0.603 0 1.131 0.116 1.584 0.353 0.45 0.234 0.822 0.55 1.113 0.944s0.497 0.847 0.625 1.353c0.128 0.506 0.172 1.034 0.137 1.588h-5.147c0 0.559 0.188 1.094 0.484 1.378zM13.578 7.594c-0.231-0.256-0.628-0.397-1.106-0.397-0.313 0-0.572 0.053-0.778 0.159-0.203 0.106-0.369 0.237-0.497 0.394-0.125 0.156-0.213 0.325-0.262 0.503-0.050 0.172-0.081 0.331-0.091 0.469h3.188c-0.047-0.5-0.219-0.869-0.453-1.128z"/> <path fill="#fff" d="M10.444 4h3.991v0.972h-3.991v-0.972z"/> 
    </symbol>
    <symbol id="icon_circle-up" viewBox="0 0 16 16">
       <path fill="#fff" d="M0 8c0 4.418 3.582 8 8 8s8-3.582 8-8-3.582-8-8-8-8 3.582-8 8zM14.5 8c0 3.59-2.91 6.5-6.5 6.5s-6.5-2.91-6.5-6.5 2.91-6.5 6.5-6.5 6.5 2.91 6.5 6.5z"/> <path fill="#fff" d="M11.043 10.457l1.414-1.414-4.457-4.457-4.457 4.457 1.414 1.414 3.043-3.043z"/> 
    </symbol>
    <symbol id="icon_clock" viewBox="0 0 16 16">
       <path fill="#23b7a4" d="M10.293 11.707l-3.293-3.293v-4.414h2v3.586l2.707 2.707zM8 0c-4.418 0-8 3.582-8 8s3.582 8 8 8 8-3.582 8-8-3.582-8-8-8zM8 14c-3.314 0-6-2.686-6-6s2.686-6 6-6c3.314 0 6 2.686 6 6s-2.686 6-6 6z"/> 
    </symbol>
    <symbol id="icon_cogs" viewBox="0 0 16 16">
       <path fill="#23b7a4" d="M5.683 11.282l0.645-0.903-0.707-0.707-0.903 0.645c-0.168-0.094-0.347-0.168-0.535-0.222l-0.183-1.095h-1l-0.183 1.095c-0.188 0.053-0.368 0.128-0.535 0.222l-0.903-0.645-0.707 0.707 0.645 0.903c-0.094 0.168-0.168 0.347-0.222 0.535l-1.095 0.183v1l1.095 0.183c0.053 0.188 0.128 0.368 0.222 0.535l-0.645 0.903 0.707 0.707 0.903-0.645c0.168 0.094 0.347 0.168 0.535 0.222l0.183 1.095h1l0.183-1.095c0.188-0.053 0.368-0.128 0.535-0.222l0.903 0.645 0.707-0.707-0.645-0.903c0.094-0.168 0.168-0.347 0.222-0.535l1.095-0.182v-1l-1.095-0.183c-0.053-0.188-0.128-0.368-0.222-0.535zM3.5 13.5c-0.552 0-1-0.448-1-1s0.448-1 1-1 1 0.448 1 1-0.448 1-1 1zM16 6v-1l-1.053-0.191c-0.019-0.126-0.044-0.25-0.074-0.372l0.899-0.58-0.383-0.924-1.046 0.226c-0.066-0.108-0.136-0.213-0.211-0.315l0.609-0.88-0.707-0.707-0.88 0.609c-0.102-0.074-0.207-0.145-0.315-0.211l0.226-1.046-0.924-0.383-0.58 0.899c-0.122-0.030-0.246-0.054-0.372-0.074l-0.191-1.053h-1l-0.191 1.053c-0.126 0.019-0.25 0.044-0.372 0.074l-0.58-0.899-0.924 0.383 0.226 1.046c-0.108 0.066-0.213 0.136-0.315 0.211l-0.88-0.609-0.707 0.707 0.609 0.88c-0.074 0.102-0.145 0.207-0.211 0.315l-1.046-0.226-0.383 0.924 0.899 0.58c-0.030 0.122-0.054 0.246-0.074 0.372l-1.053 0.191v1l1.053 0.191c0.019 0.126 0.044 0.25 0.074 0.372l-0.899 0.58 0.383 0.924 1.046-0.226c0.066 0.108 0.136 0.213 0.211 0.315l-0.609 0.88 0.707 0.707 0.88-0.609c0.102 0.074 0.207 0.145 0.315 0.211l-0.226 1.046 0.924 0.383 0.58-0.899c0.122 0.030 0.246 0.054 0.372 0.074l0.191 1.053h1l0.191-1.053c0.126-0.019 0.25-0.044 0.372-0.074l0.58 0.899 0.924-0.383-0.226-1.046c0.108-0.066 0.213-0.136 0.315-0.211l0.88 0.609 0.707-0.707-0.609-0.88c0.074-0.102 0.145-0.207 0.211-0.315l1.046 0.226 0.383-0.924-0.899-0.58c0.030-0.122 0.054-0.246 0.074-0.372l1.053-0.191zM10.5 7.675c-1.201 0-2.175-0.974-2.175-2.175s0.974-2.175 2.175-2.175 2.175 0.974 2.175 2.175c0 1.201-0.974 2.175-2.175 2.175z"/> 
    </symbol>
    <symbol id="icon_dribbble" viewBox="0 0 32 32">
       <path fill="#fff" d="M16 32c-8.822 0-16-7.178-16-16s7.178-16 16-16c8.823 0 16 7.178 16 16s-7.177 16-16 16zM29.494 18.19c-0.468-0.148-4.23-1.27-8.513-0.584 1.788 4.912 2.515 8.913 2.655 9.744 3.066-2.073 5.249-5.357 5.858-9.16zM21.338 28.601c-0.203-1.199-0.997-5.378-2.916-10.364-0.030 0.010-0.060 0.020-0.090 0.030-7.708 2.686-10.476 8.032-10.721 8.534 2.317 1.807 5.229 2.885 8.389 2.885 1.893 0 3.697-0.387 5.338-1.086zM5.847 25.159c0.31-0.53 4.060-6.74 11.109-9.019 0.178-0.058 0.358-0.112 0.539-0.162-0.343-0.776-0.717-1.554-1.108-2.319-6.825 2.043-13.448 1.957-14.046 1.945-0.004 0.139-0.007 0.278-0.007 0.418 0 3.51 1.331 6.715 3.513 9.138zM2.622 13.222c0.611 0.008 6.242 0.033 12.634-1.665-2.264-4.025-4.707-7.41-5.067-7.904-3.823 1.803-6.681 5.328-7.567 9.569zM12.797 2.734c0.378 0.506 2.86 3.886 5.099 8 4.86-1.821 6.917-4.587 7.163-4.937-2.413-2.141-5.587-3.444-9.059-3.444-1.103 0-2.175 0.132-3.203 0.38zM26.579 7.378c-0.288 0.39-2.578 3.326-7.631 5.389 0.318 0.651 0.623 1.313 0.907 1.979 0.101 0.236 0.199 0.471 0.294 0.705 4.547-0.572 9.066 0.345 9.516 0.44-0.030-3.226-1.183-6.188-3.086-8.513z"/> 
    </symbol>
    <symbol id="icon_facebook" viewBox="0 0 32 32">
       <path fill="#fff" d="M21 6c-2.761 0-5 2.239-5 5v3h-4v4h4v14h4v-14h4.5l1-4h-5.5v-3c0-0.552 0.448-1 1-1h5v-4h-5z"/> 
    </symbol>
    <symbol id="icon_google" viewBox="0 0 32 32">
       <path fill="#fff" d="M24.673 2c0 0-6.28 0-8.373 0-3.754 0-7.287 2.844-7.287 6.138 0 3.366 2.559 6.083 6.378 6.083 0.266 0 0.524-0.005 0.776-0.024-0.248 0.475-0.425 1.009-0.425 1.564 0 0.936 0.503 1.694 1.14 2.313-0.481 0-0.945 0.014-1.452 0.014-4.649-0-8.228 2.961-8.228 6.032 0 3.024 3.923 4.916 8.573 4.916 5.301 0 8.228-3.008 8.228-6.032 0-2.425-0.715-3.877-2.928-5.442-0.757-0.536-2.204-1.839-2.204-2.604 0-0.897 0.256-1.34 1.607-2.395 1.385-1.082 2.365-2.603 2.365-4.372 0-2.106-0.938-4.159-2.699-4.837h2.655l1.874-1.354zM21.748 22.483c0.066 0.28 0.103 0.569 0.103 0.863 0 2.444-1.575 4.353-6.093 4.353-3.214 0-5.535-2.035-5.535-4.478 0-2.395 2.879-4.389 6.093-4.354 0.75 0.008 1.449 0.129 2.083 0.334 1.745 1.213 2.996 1.899 3.349 3.281zM16.603 13.368c-2.157-0.065-4.207-2.413-4.58-5.246s1.074-5.001 3.231-4.937c2.157 0.065 4.207 2.338 4.58 5.171s-1.075 5.077-3.231 5.012z"/> 
    </symbol>
    <symbol id="icon_linkedin" viewBox="0 0 32 32">
       <path fill="#fff" d="M12 12h5.535v2.837h0.079c0.77-1.381 2.655-2.837 5.464-2.837 5.842 0 6.922 3.637 6.922 8.367v9.633h-5.769v-8.54c0-2.037-0.042-4.657-3.001-4.657-3.005 0-3.463 2.218-3.463 4.509v8.688h-5.767v-18z"/> <path fill="#fff" d="M2 12h6v18h-6v-18z"/> <path fill="#fff" d="M8 7c0 1.657-1.343 3-3 3s-3-1.343-3-3c0-1.657 1.343-3 3-3s3 1.343 3 3z"/> 
    </symbol>
    <symbol id="icon_mobile" viewBox="0 0 16 16">
       <path fill="#23b7a4" d="M11.5 0h-7c-0.825 0-1.5 0.675-1.5 1.5v13c0 0.825 0.675 1.5 1.5 1.5h7c0.825 0 1.5-0.675 1.5-1.5v-13c0-0.825-0.675-1.5-1.5-1.5zM6 0.75h4v0.5h-4v-0.5zM8 15c-0.552 0-1-0.448-1-1s0.448-1 1-1 1 0.448 1 1-0.448 1-1 1zM12 12h-8v-10h8v10z"/> 
    </symbol>
    <symbol id="icon_pencil" viewBox="0 0 16 16">
       <path fill="#23b7a4" d="M6 10l2-1 7-7-1-1-7 7-1 2zM4.52 13.548c-0.494-1.043-1.026-1.574-2.069-2.069l1.548-4.262 2-1.217 6-6h-3l-6 6-3 10 10-3 6-6v-3l-6 6-1.217 2z"/> 
    </symbol>
    <symbol id="icon_skype" viewBox="0 0 16 16">
       <path fill="#fff" d="M6.65 0.584c-0.025-0.016-0.053-0.028-0.078-0.041-0.028 0.006-0.053 0.009-0.081 0.016l0.159 0.025z"/> <path fill="#fff" d="M0.575 6.578c-0.006 0.028-0.009 0.056-0.012 0.081 0.016 0.025 0.025 0.050 0.041 0.075l-0.028-0.156z"/> <path fill="#fff" d="M15.419 9.416c0.006-0.028 0.009-0.056 0.016-0.084-0.016-0.025-0.025-0.050-0.041-0.075l0.025 0.159z"/> <path fill="#fff" d="M9.25 15.359c0.025 0.016 0.053 0.028 0.078 0.041 0.028-0.006 0.056-0.009 0.084-0.012l-0.162-0.028z"/> <path fill="#fff" d="M15.434 9.331c-0.006 0.028-0.009 0.056-0.016 0.084l-0.028-0.162c0.016 0.028 0.028 0.053 0.044 0.078 0.081-0.45 0.125-0.909 0.125-1.369 0-1.019-0.2-2.009-0.594-2.941-0.381-0.9-0.925-1.709-1.619-2.403s-1.503-1.238-2.4-1.619c-0.931-0.394-1.922-0.594-2.941-0.594-0.481 0-0.963 0.044-1.431 0.134 0 0-0.003 0-0.003 0 0.025 0.012 0.053 0.025 0.078 0.041l-0.159-0.025c0.028-0.006 0.053-0.009 0.081-0.016-0.644-0.341-1.366-0.525-2.097-0.525-1.194 0-2.319 0.466-3.163 1.309s-1.309 1.969-1.309 3.163c0 0.759 0.197 1.509 0.563 2.169 0.006-0.028 0.009-0.056 0.012-0.081l0.028 0.159c-0.016-0.025-0.028-0.050-0.041-0.075-0.075 0.428-0.112 0.866-0.112 1.303 0 1.019 0.2 2.009 0.594 2.941 0.381 0.9 0.925 1.706 1.619 2.4s1.503 1.238 2.403 1.619c0.931 0.394 1.922 0.594 2.941 0.594 0.444 0 0.887-0.041 1.322-0.119-0.025-0.016-0.050-0.028-0.078-0.041l0.162 0.028c-0.028 0.006-0.056 0.009-0.084 0.012 0.669 0.378 1.428 0.581 2.2 0.581 1.194 0 2.319-0.466 3.162-1.309s1.309-1.969 1.309-3.162c-0.003-0.759-0.2-1.509-0.569-2.175zM8.034 12.591c-2.684 0-3.884-1.319-3.884-2.309 0-0.506 0.375-0.863 0.891-0.863 1.15 0 0.85 1.65 2.994 1.65 1.097 0 1.703-0.597 1.703-1.206 0-0.366-0.181-0.772-0.903-0.95l-2.388-0.597c-1.922-0.481-2.272-1.522-2.272-2.5 0-2.028 1.909-2.791 3.703-2.791 1.653 0 3.6 0.913 3.6 2.131 0 0.522-0.453 0.825-0.969 0.825-0.981 0-0.8-1.356-2.775-1.356-0.981 0-1.522 0.444-1.522 1.078s0.775 0.838 1.447 0.991l1.769 0.394c1.934 0.431 2.425 1.563 2.425 2.625 0 1.647-1.266 2.878-3.819 2.878z"/> 
    </symbol>
    <symbol id="icon_tumblr" viewBox="0 0 32 32">
       <path fill="#fff" d="M18.001 14l-0 7.318c0 1.857-0.024 2.927 0.173 3.453 0.195 0.524 0.685 1.067 1.218 1.381 0.709 0.425 1.517 0.637 2.428 0.637 1.62 0 2.577-0.214 4.179-1.267v4.811c-1.366 0.642-2.558 1.019-3.666 1.279-1.109 0.258-2.308 0.388-3.596 0.388-1.463 0-2.327-0.184-3.45-0.552-1.124-0.371-2.083-0.9-2.876-1.579-0.795-0.685-1.344-1.413-1.652-2.182s-0.46-1.888-0.46-3.351v-11.222h-4.295v-4.531c1.256-0.408 2.661-0.993 3.556-1.755 0.899-0.764 1.618-1.678 2.16-2.748 0.543-1.067 0.917-2.429 1.121-4.079h5.159l-0 8h7.999v6h-7.999z"/> 
    </symbol>
    <symbol id="icon_twitter" viewBox="0 0 32 32">
       <path fill="#fff" d="M32 6.076c-1.177 0.522-2.443 0.875-3.771 1.034 1.355-0.813 2.396-2.099 2.887-3.632-1.269 0.752-2.674 1.299-4.169 1.593-1.198-1.276-2.904-2.073-4.792-2.073-3.626 0-6.565 2.939-6.565 6.565 0 0.515 0.058 1.016 0.17 1.496-5.456-0.274-10.294-2.888-13.532-6.86-0.565 0.97-0.889 2.097-0.889 3.301 0 2.278 1.159 4.287 2.921 5.465-1.076-0.034-2.088-0.329-2.974-0.821-0.001 0.027-0.001 0.055-0.001 0.083 0 3.181 2.263 5.834 5.266 6.437-0.551 0.15-1.131 0.23-1.73 0.23-0.423 0-0.834-0.041-1.235-0.118 0.835 2.608 3.26 4.506 6.133 4.559-2.247 1.761-5.078 2.81-8.154 2.81-0.53 0-1.052-0.031-1.566-0.092 2.905 1.863 6.356 2.95 10.064 2.95 12.076 0 18.679-10.004 18.679-18.68 0-0.285-0.006-0.568-0.019-0.849 1.283-0.926 2.396-2.082 3.276-3.398z"/> 
    </symbol></svg>